<?xml version="1.0" standalone="no"?><!DOCTYPE svg PUBLIC "-//W3C//DTD SVG 1.1//EN" "http://www.w3.org/Graphics/SVG/1.1/DTD/svg11.dtd"><svg t="1721117081298" class="icon" viewBox="0 0 1077 1024" version="1.1" xmlns="http://www.w3.org/2000/svg" p-id="6297" xmlns:xlink="http://www.w3.org/1999/xlink" width="210.3515625" height="200"><path d="M1034.192611 318.73462A527.920238 527.920238 0 0 0 756.907112 42.363607a197.529176 197.529176 0 0 1 319.6785 154.744252 195.961484 195.961484 0 0 1-42.393001 121.626761z" fill="#FD8D4B" p-id="6298"></path><path d="M1026.09287 536.578469a482.979737 482.979737 0 0 1-133.31913 333.134523l68.259917 67.998635a49.839537 49.839537 0 0 1-70.546134 70.350172l-73.289595-73.028313a487.552172 487.552172 0 0 1-557.249139 0l-72.832352 73.028313a50.362101 50.362101 0 1 1-71.26466-71.134018l67.672033-67.476071A485.396596 485.396596 0 0 1 538.279416 50.398028a486.964287 486.964287 0 0 1 487.748134 486.180441z" fill="#FDAD4A" p-id="6299"></path><path d="M538.279416 150.991589a385.390918 385.390918 0 1 0 386.827969 385.390919 386.240085 386.240085 0 0 0-386.827969-385.390919z" fill="#FFCC63" p-id="6300"></path><path d="M740.185065 586.94057h-201.840328a50.362101 50.362101 0 0 1-50.427422-50.29678V268.372518a50.427422 50.427422 0 0 1 100.854843 0v217.974491h151.412907a50.296781 50.296781 0 1 1 0 100.593561z" fill="#FFFFFF" p-id="6301"></path><path d="M43.346028 325.527951A200.860521 200.860521 0 0 1 201.878869 0.101247 201.252444 201.252444 0 0 1 326.641014 43.278094 539.286004 539.286004 0 0 0 43.346028 325.527951z" fill="#FD8D4B" p-id="6302"></path><path d="M75.28775 237.410604a19.596148 19.596148 0 0 1-33.313452-3.853909A141.941435 141.941435 0 0 1 241.332448 52.292322a13.456022 13.456022 0 0 1-0.914487 23.907301 600.948551 600.948551 0 0 0-165.130211 161.210981z" fill="#FFCC63" p-id="6303"></path><path d="M847.310676 77.440712a19.596148 19.596148 0 0 1 4.049871-33.05217 141.941435 141.941435 0 0 1 180.023283 200.468598 13.456022 13.456022 0 0 1-23.907301-1.045128 600.948551 600.948551 0 0 0-160.165853-166.3713z" fill="#FFCC63" p-id="6304"></path><path d="M751.485511 263.669443c8.230382-8.230382 31.027235 1.110448 50.884665 20.902558s29.394223 42.523642 21.16384 50.754024-30.961914-1.110448-50.884665-20.902558S743.320449 271.899825 751.485511 263.669443z" fill="#FFFFFF" p-id="6305"></path><path d="M727.251607 262.03643m-9.863395 0a9.863395 9.863395 0 1 0 19.72679 0 9.863395 9.863395 0 1 0-19.72679 0Z" fill="#FFFFFF" p-id="6306"></path></svg>